<svg id="visual" viewBox="0 0 1920 1080" width="1920" height="1080" xmlns="http://www.w3.org/2000/svg" xmlns:xlink="http://www.w3.org/1999/xlink" version="1.1"><rect x="0" y="0" width="1920" height="1080" fill="#070B13"></rect><defs><linearGradient id="grad1_0" x1="43.8%" y1="0%" x2="100%" y2="100%"><stop offset="14.444444444444446%" stop-color="#e11c47" stop-opacity="1"></stop><stop offset="85.55555555555554%" stop-color="#e11c47" stop-opacity="1"></stop></linearGradient></defs><defs><linearGradient id="grad1_1" x1="43.8%" y1="0%" x2="100%" y2="100%"><stop offset="14.444444444444446%" stop-color="#e11c47" stop-opacity="1"></stop><stop offset="85.55555555555554%" stop-color="#b3155e" stop-opacity="1"></stop></linearGradient></defs><defs><linearGradient id="grad1_2" x1="43.8%" y1="0%" x2="100%" y2="100%"><stop offset="14.444444444444446%" stop-color="#7c2363" stop-opacity="1"></stop><stop offset="85.55555555555554%" stop-color="#b3155e" stop-opacity="1"></stop></linearGradient></defs><defs><linearGradient id="grad1_3" x1="43.8%" y1="0%" x2="100%" y2="100%"><stop offset="14.444444444444446%" stop-color="#7c2363" stop-opacity="1"></stop><stop offset="85.55555555555554%" stop-color="#472554" stop-opacity="1"></stop></linearGradient></defs><defs><linearGradient id="grad1_4" x1="43.8%" y1="0%" x2="100%" y2="100%"><stop offset="14.444444444444446%" stop-color="#1e1d37" stop-opacity="1"></stop><stop offset="85.55555555555554%" stop-color="#472554" stop-opacity="1"></stop></linearGradient></defs><defs><linearGradient id="grad1_5" x1="43.8%" y1="0%" x2="100%" y2="100%"><stop offset="14.444444444444446%" stop-color="#1e1d37" stop-opacity="1"></stop><stop offset="85.55555555555554%" stop-color="#070b13" stop-opacity="1"></stop></linearGradient></defs><defs><linearGradient id="grad2_0" x1="0%" y1="0%" x2="56.3%" y2="100%"><stop offset="14.444444444444446%" stop-color="#e11c47" stop-opacity="1"></stop><stop offset="85.55555555555554%" stop-color="#e11c47" stop-opacity="1"></stop></linearGradient></defs><defs><linearGradient id="grad2_1" x1="0%" y1="0%" x2="56.3%" y2="100%"><stop offset="14.444444444444446%" stop-color="#b3155e" stop-opacity="1"></stop><stop offset="85.55555555555554%" stop-color="#e11c47" stop-opacity="1"></stop></linearGradient></defs><defs><linearGradient id="grad2_2" x1="0%" y1="0%" x2="56.3%" y2="100%"><stop offset="14.444444444444446%" stop-color="#b3155e" stop-opacity="1"></stop><stop offset="85.55555555555554%" stop-color="#7c2363" stop-opacity="1"></stop></linearGradient></defs><defs><linearGradient id="grad2_3" x1="0%" y1="0%" x2="56.3%" y2="100%"><stop offset="14.444444444444446%" stop-color="#472554" stop-opacity="1"></stop><stop offset="85.55555555555554%" stop-color="#7c2363" stop-opacity="1"></stop></linearGradient></defs><defs><linearGradient id="grad2_4" x1="0%" y1="0%" x2="56.3%" y2="100%"><stop offset="14.444444444444446%" stop-color="#472554" stop-opacity="1"></stop><stop offset="85.55555555555554%" stop-color="#1e1d37" stop-opacity="1"></stop></linearGradient></defs><defs><linearGradient id="grad2_5" x1="0%" y1="0%" x2="56.3%" y2="100%"><stop offset="14.444444444444446%" stop-color="#070b13" stop-opacity="1"></stop><stop offset="85.55555555555554%" stop-color="#1e1d37" stop-opacity="1"></stop></linearGradient></defs><g transform="translate(1920, 0)"><path d="M0 594C-32.7 560.8 -65.5 527.6 -104.2 523.7C-142.9 519.9 -187.5 545.3 -221.6 534.9C-255.6 524.6 -279.1 478.4 -290.6 434.9C-302.1 391.3 -301.6 350.4 -338.7 338.7C-375.8 327 -450.4 344.7 -493.9 330C-537.4 315.3 -549.9 268.4 -540.5 223.9C-531.1 179.4 -499.8 137.4 -505.1 100.5C-510.4 63.6 -552.2 31.8 -594 0L0 0Z" fill="#121625"></path><path d="M0 495C-27.3 467.3 -54.6 439.7 -86.8 436.4C-119.1 433.2 -156.3 454.4 -184.6 445.8C-213 437.1 -232.6 398.7 -242.1 362.4C-251.7 326.1 -251.4 292 -282.3 282.3C-313.2 272.5 -375.3 287.2 -411.6 275C-447.8 262.8 -458.2 223.6 -450.4 186.6C-442.6 149.5 -416.5 114.5 -420.9 83.7C-425.3 53 -460.2 26.5 -495 0L0 0Z" fill="#302247"></path><path d="M0 396C-21.8 373.9 -43.7 351.7 -69.5 349.2C-95.2 346.6 -125 363.5 -147.7 356.6C-170.4 349.7 -186 318.9 -193.7 289.9C-201.4 260.9 -201.1 233.6 -225.8 225.8C-250.5 218 -300.2 229.8 -329.3 220C-358.3 210.2 -366.6 178.9 -360.3 149.2C-354 119.6 -333.2 91.6 -336.7 67C-340.3 42.4 -368.1 21.2 -396 0L0 0Z" fill="#60265e"></path><path d="M0 297C-16.4 280.4 -32.7 263.8 -52.1 261.9C-71.4 259.9 -93.8 272.6 -110.8 267.5C-127.8 262.3 -139.5 239.2 -145.3 217.4C-151 195.7 -150.8 175.2 -169.4 169.4C-187.9 163.5 -225.2 172.3 -246.9 165C-268.7 157.7 -274.9 134.2 -270.2 111.9C-265.5 89.7 -249.9 68.7 -252.6 50.2C-255.2 31.8 -276.1 15.9 -297 0L0 0Z" fill="#981d63"></path><path d="M0 198C-10.9 186.9 -21.8 175.9 -34.7 174.6C-47.6 173.3 -62.5 181.8 -73.9 178.3C-85.2 174.9 -93 159.5 -96.9 145C-100.7 130.4 -100.5 116.8 -112.9 112.9C-125.3 109 -150.1 114.9 -164.6 110C-179.1 105.1 -183.3 89.5 -180.2 74.6C-177 59.8 -166.6 45.8 -168.4 33.5C-170.1 21.2 -184.1 10.6 -198 0L0 0Z" fill="#cc1255"></path><path d="M0 99C-5.5 93.5 -10.9 87.9 -17.4 87.3C-23.8 86.6 -31.3 90.9 -36.9 89.2C-42.6 87.4 -46.5 79.7 -48.4 72.5C-50.3 65.2 -50.3 58.4 -56.5 56.5C-62.6 54.5 -75.1 57.4 -82.3 55C-89.6 52.6 -91.6 44.7 -90.1 37.3C-88.5 29.9 -83.3 22.9 -84.2 16.7C-85.1 10.6 -92 5.3 -99 0L0 0Z" fill="#e11c47"></path></g><g transform="translate(0, 1080)"><path d="M0 -594C34.1 -565.6 68.2 -537.2 105.3 -529.6C142.5 -522 182.7 -535.2 219.7 -530.3C256.6 -525.4 290.2 -502.4 316.7 -473.9C343.1 -445.4 362.4 -411.4 376.2 -376.2C390 -340.9 398.4 -304.5 409.9 -273.9C421.4 -243.3 435.9 -218.6 470.3 -194.8C504.6 -171 558.7 -148.2 582.6 -115.9C606.5 -83.6 600.3 -41.8 594 0L0 0Z" fill="#121625"></path><path d="M0 -495C28.4 -471.3 56.8 -447.7 87.8 -441.4C118.8 -435 152.3 -446 183.1 -441.9C213.8 -437.8 241.9 -418.7 263.9 -394.9C285.9 -371.2 302 -342.8 313.5 -313.5C325 -284.1 332 -253.7 341.6 -228.2C351.2 -202.8 363.3 -182.1 391.9 -162.3C420.5 -142.5 465.6 -123.5 485.5 -96.6C505.4 -69.6 500.2 -34.8 495 0L0 0Z" fill="#302247"></path><path d="M0 -396C22.7 -377.1 45.5 -358.2 70.2 -353.1C95 -348 121.8 -356.8 146.4 -353.5C171.1 -350.3 193.5 -335 211.1 -316C228.7 -297 241.6 -274.3 250.8 -250.8C260 -227.3 265.6 -203 273.3 -182.6C280.9 -162.2 290.6 -145.7 313.5 -129.9C336.4 -114 372.4 -98.8 388.4 -77.3C404.3 -55.7 400.2 -27.9 396 0L0 0Z" fill="#60265e"></path><path d="M0 -297C17 -282.8 34.1 -268.6 52.7 -264.8C71.3 -261 91.4 -267.6 109.8 -265.2C128.3 -262.7 145.1 -251.2 158.3 -237C171.6 -222.7 181.2 -205.7 188.1 -188.1C195 -170.5 199.2 -152.2 205 -136.9C210.7 -121.7 218 -109.3 235.1 -97.4C252.3 -85.5 279.3 -74.1 291.3 -57.9C303.3 -41.8 300.1 -20.9 297 0L0 0Z" fill="#981d63"></path><path d="M0 -198C11.4 -188.5 22.7 -179.1 35.1 -176.5C47.5 -174 60.9 -178.4 73.2 -176.8C85.5 -175.1 96.7 -167.5 105.6 -158C114.4 -148.5 120.8 -137.1 125.4 -125.4C130 -113.6 132.8 -101.5 136.6 -91.3C140.5 -81.1 145.3 -72.9 156.8 -64.9C168.2 -57 186.2 -49.4 194.2 -38.6C202.2 -27.9 200.1 -13.9 198 0L0 0Z" fill="#cc1255"></path><path d="M0 -99C5.7 -94.3 11.4 -89.5 17.6 -88.3C23.8 -87 30.5 -89.2 36.6 -88.4C42.8 -87.6 48.4 -83.7 52.8 -79C57.2 -74.2 60.4 -68.6 62.7 -62.7C65 -56.8 66.4 -50.7 68.3 -45.6C70.2 -40.6 72.7 -36.4 78.4 -32.5C84.1 -28.5 93.1 -24.7 97.1 -19.3C101.1 -13.9 100 -7 99 0L0 0Z" fill="#e11c47"></path></g></svg>