<svg id="visual" viewBox="0 0 1920 1080" width="1920" height="1080" xmlns="http://www.w3.org/2000/svg" xmlns:xlink="http://www.w3.org/1999/xlink" version="1.1"><rect x="0" y="0" width="1920" height="1080" fill="#070B13"></rect><defs><linearGradient id="grad1_0" x1="43.8%" y1="100%" x2="100%" y2="0%"><stop offset="14.444444444444446%" stop-color="#e11c47" stop-opacity="1"></stop><stop offset="85.55555555555554%" stop-color="#e11c47" stop-opacity="1"></stop></linearGradient></defs><defs><linearGradient id="grad1_1" x1="43.8%" y1="100%" x2="100%" y2="0%"><stop offset="14.444444444444446%" stop-color="#e11c47" stop-opacity="1"></stop><stop offset="85.55555555555554%" stop-color="#b3155e" stop-opacity="1"></stop></linearGradient></defs><defs><linearGradient id="grad1_2" x1="43.8%" y1="100%" x2="100%" y2="0%"><stop offset="14.444444444444446%" stop-color="#7c2363" stop-opacity="1"></stop><stop offset="85.55555555555554%" stop-color="#b3155e" stop-opacity="1"></stop></linearGradient></defs><defs><linearGradient id="grad1_3" x1="43.8%" y1="100%" x2="100%" y2="0%"><stop offset="14.444444444444446%" stop-color="#7c2363" stop-opacity="1"></stop><stop offset="85.55555555555554%" stop-color="#472554" stop-opacity="1"></stop></linearGradient></defs><defs><linearGradient id="grad1_4" x1="43.8%" y1="100%" x2="100%" y2="0%"><stop offset="14.444444444444446%" stop-color="#1e1d37" stop-opacity="1"></stop><stop offset="85.55555555555554%" stop-color="#472554" stop-opacity="1"></stop></linearGradient></defs><defs><linearGradient id="grad1_5" x1="43.8%" y1="100%" x2="100%" y2="0%"><stop offset="14.444444444444446%" stop-color="#1e1d37" stop-opacity="1"></stop><stop offset="85.55555555555554%" stop-color="#070b13" stop-opacity="1"></stop></linearGradient></defs><defs><linearGradient id="grad2_0" x1="0%" y1="100%" x2="56.3%" y2="0%"><stop offset="14.444444444444446%" stop-color="#e11c47" stop-opacity="1"></stop><stop offset="85.55555555555554%" stop-color="#e11c47" stop-opacity="1"></stop></linearGradient></defs><defs><linearGradient id="grad2_1" x1="0%" y1="100%" x2="56.3%" y2="0%"><stop offset="14.444444444444446%" stop-color="#b3155e" stop-opacity="1"></stop><stop offset="85.55555555555554%" stop-color="#e11c47" stop-opacity="1"></stop></linearGradient></defs><defs><linearGradient id="grad2_2" x1="0%" y1="100%" x2="56.3%" y2="0%"><stop offset="14.444444444444446%" stop-color="#b3155e" stop-opacity="1"></stop><stop offset="85.55555555555554%" stop-color="#7c2363" stop-opacity="1"></stop></linearGradient></defs><defs><linearGradient id="grad2_3" x1="0%" y1="100%" x2="56.3%" y2="0%"><stop offset="14.444444444444446%" stop-color="#472554" stop-opacity="1"></stop><stop offset="85.55555555555554%" stop-color="#7c2363" stop-opacity="1"></stop></linearGradient></defs><defs><linearGradient id="grad2_4" x1="0%" y1="100%" x2="56.3%" y2="0%"><stop offset="14.444444444444446%" stop-color="#472554" stop-opacity="1"></stop><stop offset="85.55555555555554%" stop-color="#1e1d37" stop-opacity="1"></stop></linearGradient></defs><defs><linearGradient id="grad2_5" x1="0%" y1="100%" x2="56.3%" y2="0%"><stop offset="14.444444444444446%" stop-color="#070b13" stop-opacity="1"></stop><stop offset="85.55555555555554%" stop-color="#1e1d37" stop-opacity="1"></stop></linearGradient></defs><g transform="translate(1920, 1080)"><path d="M-594 0C-560.8 -32.7 -527.6 -65.5 -523.7 -104.2C-519.9 -142.9 -545.3 -187.5 -534.9 -221.6C-524.6 -255.6 -478.4 -279.1 -434.9 -290.6C-391.3 -302.1 -350.4 -301.6 -338.7 -338.7C-327 -375.8 -344.7 -450.4 -330 -493.9C-315.3 -537.4 -268.4 -549.9 -223.9 -540.5C-179.4 -531.1 -137.4 -499.8 -100.5 -505.1C-63.6 -510.4 -31.8 -552.2 0 -594L0 0Z" fill="#121625"></path><path d="M-495 0C-467.3 -27.3 -439.7 -54.6 -436.4 -86.8C-433.2 -119.1 -454.4 -156.3 -445.8 -184.6C-437.1 -213 -398.7 -232.6 -362.4 -242.1C-326.1 -251.7 -292 -251.4 -282.3 -282.3C-272.5 -313.2 -287.2 -375.3 -275 -411.6C-262.8 -447.8 -223.6 -458.2 -186.6 -450.4C-149.5 -442.6 -114.5 -416.5 -83.7 -420.9C-53 -425.3 -26.5 -460.2 0 -495L0 0Z" fill="#302247"></path><path d="M-396 0C-373.9 -21.8 -351.7 -43.7 -349.2 -69.5C-346.6 -95.2 -363.5 -125 -356.6 -147.7C-349.7 -170.4 -318.9 -186 -289.9 -193.7C-260.9 -201.4 -233.6 -201.1 -225.8 -225.8C-218 -250.5 -229.8 -300.2 -220 -329.3C-210.2 -358.3 -178.9 -366.6 -149.2 -360.3C-119.6 -354 -91.6 -333.2 -67 -336.7C-42.4 -340.3 -21.2 -368.1 0 -396L0 0Z" fill="#60265e"></path><path d="M-297 0C-280.4 -16.4 -263.8 -32.7 -261.9 -52.1C-259.9 -71.4 -272.6 -93.8 -267.5 -110.8C-262.3 -127.8 -239.2 -139.5 -217.4 -145.3C-195.7 -151 -175.2 -150.8 -169.4 -169.4C-163.5 -187.9 -172.3 -225.2 -165 -246.9C-157.7 -268.7 -134.2 -274.9 -111.9 -270.2C-89.7 -265.5 -68.7 -249.9 -50.2 -252.6C-31.8 -255.2 -15.9 -276.1 0 -297L0 0Z" fill="#981d63"></path><path d="M-198 0C-186.9 -10.9 -175.9 -21.8 -174.6 -34.7C-173.3 -47.6 -181.8 -62.5 -178.3 -73.9C-174.9 -85.2 -159.5 -93 -145 -96.9C-130.4 -100.7 -116.8 -100.5 -112.9 -112.9C-109 -125.3 -114.9 -150.1 -110 -164.6C-105.1 -179.1 -89.5 -183.3 -74.6 -180.2C-59.8 -177 -45.8 -166.6 -33.5 -168.4C-21.2 -170.1 -10.6 -184.1 0 -198L0 0Z" fill="#cc1255"></path><path d="M-99 0C-93.5 -5.5 -87.9 -10.9 -87.3 -17.4C-86.6 -23.8 -90.9 -31.3 -89.2 -36.9C-87.4 -42.6 -79.7 -46.5 -72.5 -48.4C-65.2 -50.3 -58.4 -50.3 -56.5 -56.5C-54.5 -62.6 -57.4 -75.1 -55 -82.3C-52.6 -89.6 -44.7 -91.6 -37.3 -90.1C-29.9 -88.5 -22.9 -83.3 -16.7 -84.2C-10.6 -85.1 -5.3 -92 0 -99L0 0Z" fill="#e11c47"></path></g><g transform="translate(0, 0)"><path d="M594 0C565.6 34.1 537.2 68.2 529.6 105.3C522 142.5 535.2 182.7 530.3 219.7C525.4 256.6 502.4 290.2 473.9 316.7C445.4 343.1 411.4 362.4 376.2 376.2C340.9 390 304.5 398.4 273.9 409.9C243.3 421.4 218.6 435.9 194.8 470.3C171 504.6 148.2 558.7 115.9 582.6C83.6 606.5 41.8 600.3 0 594L0 0Z" fill="#121625"></path><path d="M495 0C471.3 28.4 447.7 56.8 441.4 87.8C435 118.8 446 152.3 441.9 183.1C437.8 213.8 418.7 241.9 394.9 263.9C371.2 285.9 342.8 302 313.5 313.5C284.1 325 253.7 332 228.2 341.6C202.8 351.2 182.1 363.3 162.3 391.9C142.5 420.5 123.5 465.6 96.6 485.5C69.6 505.4 34.8 500.2 0 495L0 0Z" fill="#302247"></path><path d="M396 0C377.1 22.7 358.2 45.5 353.1 70.2C348 95 356.8 121.8 353.5 146.4C350.3 171.1 335 193.5 316 211.1C297 228.7 274.3 241.6 250.8 250.8C227.3 260 203 265.6 182.6 273.3C162.2 280.9 145.7 290.6 129.9 313.5C114 336.4 98.8 372.4 77.3 388.4C55.7 404.3 27.9 400.2 0 396L0 0Z" fill="#60265e"></path><path d="M297 0C282.8 17 268.6 34.1 264.8 52.7C261 71.3 267.6 91.4 265.2 109.8C262.7 128.3 251.2 145.1 237 158.3C222.7 171.6 205.7 181.2 188.1 188.1C170.5 195 152.2 199.2 136.9 205C121.7 210.7 109.3 218 97.4 235.1C85.5 252.3 74.1 279.3 57.9 291.3C41.8 303.3 20.9 300.1 0 297L0 0Z" fill="#981d63"></path><path d="M198 0C188.5 11.4 179.1 22.7 176.5 35.1C174 47.5 178.4 60.9 176.8 73.2C175.1 85.5 167.5 96.7 158 105.6C148.5 114.4 137.1 120.8 125.4 125.4C113.6 130 101.5 132.8 91.3 136.6C81.1 140.5 72.9 145.3 64.9 156.8C57 168.2 49.4 186.2 38.6 194.2C27.9 202.2 13.9 200.1 0 198L0 0Z" fill="#cc1255"></path><path d="M99 0C94.3 5.7 89.5 11.4 88.3 17.6C87 23.8 89.2 30.5 88.4 36.6C87.6 42.8 83.7 48.4 79 52.8C74.2 57.2 68.6 60.4 62.7 62.7C56.8 65 50.7 66.4 45.6 68.3C40.6 70.2 36.4 72.7 32.5 78.4C28.5 84.1 24.7 93.1 19.3 97.1C13.9 101.1 7 100 0 99L0 0Z" fill="#e11c47"></path></g></svg>