<?xml version="1.0" encoding="utf-8"?>
<!-- Generator: Adobe Illustrator 23.0.1, SVG Export Plug-In . SVG Version: 6.00 Build 0)  -->
<svg version="1.1" id="visual" xmlns="http://www.w3.org/2000/svg" xmlns:xlink="http://www.w3.org/1999/xlink" x="0px" y="0px"
	 viewBox="0 0 1920 1080" style="enable-background:new 0 0 1920 1080;" xml:space="preserve">
<style type="text/css">
	.st0{fill:#070B13;}
	.st1{fill:#121625;}
	.st2{fill:#302247;}
	.st3{fill:#60265E;}
	.st4{fill:#981D63;}
	.st5{fill:#CC1255;}
	.st6{fill:#E11C47;}
</style>
<rect class="st0" width="1920" height="1080"/>
<g transform="translate(1920, 0)">
	<path class="st1" d="M0,594c-36.7-15.6-73.4-31.2-109.4-43.8c-36.1-12.6-71.4-22.2-102.2-39.3c-30.9-17.1-57.2-41.8-92.9-55.3
		C-340.1,442.2-385.1,440-420,420c-35-20-59.8-57.8-53.1-103.9c6.7-46.1,45-100.4,33.3-133.9c-11.7-33.6-73.4-46.4-107.5-73.3
		C-581.3,82-587.7,41-594,0H0V594z"/>
	<path class="st2" d="M0,495c-30.6-13-61.2-26-91.2-36.5s-59.5-18.5-85.2-32.7c-25.6-14.3-47.6-34.9-77.3-46.1
		c-29.7-11.2-67.2-13-96.3-29.7s-49.9-48.2-44.3-86.6c5.6-38.4,37.6-83.6,27.8-111.6c-9.7-28-61.2-38.7-89.6-61.1
		C-484.4,68.3-489.7,34.1-495,0H0V495z"/>
	<path class="st3" d="M0,396c-24.5-10.4-49-20.8-73-29.2c-24-8.4-47.5-14.8-68.1-26.2c-20.5-11.4-38.1-27.9-61.9-36.8
		c-23.7-9-53.7-10.4-77-23.8c-23.3-13.3-39.9-38.5-35.4-69.3c4.5-30.7,30-66.9,22.2-89.3c-7.8-22.3-49-30.9-71.7-48.8
		c-22.6-18-26.9-45.3-31.1-72.6H0V396z"/>
	<path class="st4" d="M0,297c-18.4-7.8-36.7-15.6-54.7-21.9c-18-6.3-35.7-11.1-51.1-19.6c-15.4-8.6-28.6-21-46.4-27.7
		c-17.9-6.7-40.3-7.8-57.8-17.8s-29.9-28.9-26.6-51.9c3.4-23.1,22.6-50.2,16.7-67c-5.8-16.8-36.7-23.2-53.7-36.7
		C-290.7,41-293.8,20.5-297,0H0V297z"/>
	<path class="st5" d="M0,198c-12.2-5.2-24.5-10.4-36.5-14.6c-12-4.2-23.8-7.4-34-13.1c-10.3-5.7-19.1-13.9-31-18.4
		s-26.9-5.2-38.5-11.9c-11.7-6.7-19.9-19.3-17.7-34.6c2.2-15.4,15-33.5,11.1-44.7c-3.9-11.2-24.5-15.4-35.8-24.4
		c-11.4-9-13.5-22.6-15.6-36.3H0V198z"/>
	<path class="st6" d="M0,99c-6.1-2.6-12.2-5.2-18.2-7.3c-6-2.1-11.9-3.7-17.1-6.5c-5.1-2.9-9.5-7-15.4-9.3c-6-2.2-13.5-2.6-19.3-5.9
		s-10-9.6-8.9-17.3c1.2-7.7,7.6-16.7,5.6-22.3c-1.9-5.6-12.2-7.8-17.9-12.3C-96.9,13.7-97.9,6.8-99,0H0V99z"/>
</g>
</svg>
