<?xml version="1.0" standalone="no"?><svg xmlns:xlink="http://www.w3.org/1999/xlink" xmlns="http://www.w3.org/2000/svg" viewBox="0 0 1920 1111.576275862069" preserveAspectRatio="xMaxYMax slice"><g transform="scale(2.206896551724138)"><rect x="0" y="0" width="870" height="503.6842105263158" fill="#070B13"/><rect x="18.315789473684212" y="18.315789473684212" width="9.157894736842103" height="9.157894736842103" fill="#070B13"/><circle cx="25.18" cy="20.61" r="2.29" fill="#2f0e1d"/><rect x="64.10526315789474" y="18.315789473684212" width="9.157894736842103" height="9.157894736842103" fill="#070B13"/><circle cx="66.4" cy="20.61" r="2.29" fill="#541125"/><circle cx="70.97000000000001" cy="20.61" r="2.29" fill="#4e1124"/><rect x="109.89473684210526" y="18.315789473684212" width="9.157894736842103" height="9.157894736842103" fill="#070B13"/><circle cx="116.76" cy="20.61" r="2.29" fill="#c91a41"/><circle cx="112.18" cy="25.18" r="2.29" fill="#280e1b"/><circle cx="116.76" cy="25.18" r="2.29" fill="#140c16"/><rect x="155.6842105263158" y="18.315789473684212" width="9.157894736842103" height="9.157894736842103" fill="#070B13"/><circle cx="157.97" cy="20.61" r="2.29" fill="#dc1c46"/><circle cx="157.97" cy="25.18" r="2.29" fill="#d71b45"/><rect x="201.47368421052633" y="18.315789473684212" width="9.157894736842103" height="9.157894736842103" fill="#070B13"/><circle cx="203.76" cy="20.61" r="2.29" fill="#70132c"/><rect x="293.0526315789474" y="18.315789473684212" width="9.157894736842103" height="9.157894736842103" fill="#070B13"/><circle cx="295.34000000000003" cy="20.61" r="2.29" fill="#3d0f20"/><circle cx="299.92" cy="20.61" r="2.29" fill="#b7193d"/><circle cx="299.92" cy="25.18" r="2.29" fill="#2b0e1c"/><rect x="384.63157894736844" y="18.315789473684212" width="9.157894736842103" height="9.157894736842103" fill="#070B13"/><circle cx="386.92" cy="20.61" r="2.29" fill="#981636"/><circle cx="391.5" cy="20.61" r="2.29" fill="#9f1737"/><circle cx="391.5" cy="25.18" r="2.29" fill="#73132d"/><rect x="430.42105263157896" y="18.315789473684212" width="9.157894736842103" height="9.157894736842103" fill="#070B13"/><circle cx="432.71000000000004" cy="20.61" r="2.29" fill="#5b1227"/><rect x="476.2105263157895" y="18.315789473684212" width="9.157894736842103" height="9.157894736842103" fill="#070B13"/><circle cx="478.5" cy="20.61" r="2.29" fill="#3f0f20"/><circle cx="483.08000000000004" cy="25.18" r="2.29" fill="#150c16"/><rect x="522" y="18.315789473684212" width="9.157894736842103" height="9.157894736842103" fill="#070B13"/><circle cx="524.29" cy="20.61" r="2.29" fill="#ce1b43"/><circle cx="528.87" cy="20.61" r="2.29" fill="#d71b45"/><circle cx="528.87" cy="25.18" r="2.29" fill="#6c132b"/><rect x="567.7894736842105" y="18.315789473684212" width="9.157894736842103" height="9.157894736842103" fill="#070B13"/><circle cx="570.0799999999999" cy="25.18" r="2.29" fill="#9d1737"/><rect x="613.578947368421" y="18.315789473684212" width="9.157894736842103" height="9.157894736842103" fill="#070B13"/><circle cx="615.87" cy="20.61" r="2.29" fill="#931634"/><circle cx="620.4499999999999" cy="20.61" r="2.29" fill="#b9193d"/><circle cx="615.87" cy="25.18" r="2.29" fill="#901634"/><circle cx="620.4499999999999" cy="25.18" r="2.29" fill="#340e1e"/><rect x="705.1578947368421" y="18.315789473684212" width="9.157894736842103" height="9.157894736842103" fill="#070B13"/><circle cx="707.4499999999999" cy="20.61" r="2.29" fill="#ce1b42"/><circle cx="712.03" cy="20.61" r="2.29" fill="#d61b44"/><circle cx="707.4499999999999" cy="25.18" r="2.29" fill="#6b132b"/><circle cx="712.03" cy="25.18" r="2.29" fill="#cc1a42"/><rect x="750.9473684210526" y="18.315789473684212" width="9.157894736842103" height="9.157894736842103" fill="#070B13"/><circle cx="757.8199999999999" cy="20.61" r="2.29" fill="#3c0f20"/><circle cx="757.8199999999999" cy="25.18" r="2.29" fill="#ce1b43"/><rect x="796.7368421052631" y="18.315789473684212" width="9.157894736842103" height="9.157894736842103" fill="#070B13"/><circle cx="799.03" cy="20.61" r="2.29" fill="#a11738"/><circle cx="803.61" cy="20.61" r="2.29" fill="#b4193c"/><circle cx="799.03" cy="25.18" r="2.29" fill="#4e1124"/><circle cx="803.61" cy="25.18" r="2.29" fill="#631229"/><rect x="842.5263157894736" y="18.315789473684212" width="9.157894736842103" height="9.157894736842103" fill="#070B13"/><circle cx="844.8199999999999" cy="20.61" r="2.29" fill="#621229"/><circle cx="849.4" cy="20.61" r="2.29" fill="#db1c46"/><circle cx="844.8199999999999" cy="25.18" r="2.29" fill="#c41a40"/><circle cx="849.4" cy="25.18" r="2.29" fill="#821530"/><rect x="18.315789473684212" y="64.10526315789474" width="9.157894736842103" height="9.157894736842103" fill="#070B13"/><circle cx="25.18" cy="70.97000000000001" r="2.29" fill="#7e142f"/><rect x="63.60048350541426" y="63.60048350541426" width="10.167454041803069" height="10.167454041803069" fill="#070B13"/><circle cx="66.14" cy="71.22000000000001" r="2.54" fill="#d31b44"/><circle cx="71.22000000000001" cy="71.22000000000001" r="2.54" fill="#ae183b"/><rect x="154.16987156887436" y="62.59092420045329" width="12.186572651725001" height="12.186572651725001" fill="#070B13"/><circle cx="157.21499999999997" cy="71.72500000000001" r="3.045" fill="#591127"/><circle cx="163.30499999999998" cy="71.72500000000001" r="3.045" fill="#441021"/><rect x="244.73925963233444" y="61.58136489549232" width="14.20569126164694" height="14.20569126164694" fill="#070B13"/><circle cx="248.29000000000002" cy="65.13" r="3.55" fill="#2c0e1c"/><circle cx="248.29000000000002" cy="72.23" r="3.55" fill="#d81b45"/><rect x="335.30864769579455" y="60.571805590531355" width="16.224809871568873" height="16.224809871568873" fill="#070B13"/><circle cx="339.365" cy="64.625" r="4.055" fill="#b4183c"/><circle cx="347.475" cy="64.625" r="4.055" fill="#ce1a42"/><circle cx="347.475" cy="72.73500000000001" r="4.055" fill="#581126"/><rect x="380.6354066985646" y="60.10909090909091" width="17.15023923444976" height="17.15023923444976" fill="#070B13"/><circle cx="393.5" cy="64.4" r="4.29" fill="#290e1b"/><circle cx="393.5" cy="72.97000000000001" r="4.29" fill="#bc193e"/><rect x="426.42488038277514" y="60.10909090909091" width="17.15023923444976" height="17.15023923444976" fill="#070B13"/><circle cx="439.29" cy="64.4" r="4.29" fill="#5c1227"/><circle cx="430.71000000000004" cy="72.97000000000001" r="4.29" fill="#bc193e"/><rect x="472.21435406698566" y="60.10909090909091" width="17.15023923444976" height="17.15023923444976" fill="#070B13"/><circle cx="476.5" cy="64.4" r="4.29" fill="#c21a40"/><circle cx="476.5" cy="72.97000000000001" r="4.29" fill="#3d0f20"/><circle cx="485.08000000000004" cy="72.97000000000001" r="4.29" fill="#6d132b"/><rect x="518.0038277511961" y="60.10909090909091" width="17.15023923444976" height="17.15023923444976" fill="#070B13"/><circle cx="522.29" cy="64.4" r="4.29" fill="#7f1430"/><circle cx="530.87" cy="64.4" r="4.29" fill="#941635"/><circle cx="530.87" cy="72.97000000000001" r="4.29" fill="#4a1023"/><rect x="564.2560161168471" y="60.571805590531355" width="16.224809871568873" height="16.224809871568873" fill="#070B13"/><circle cx="568.3149999999999" cy="64.625" r="4.055" fill="#af183b"/><circle cx="576.425" cy="64.625" r="4.055" fill="#431021"/><circle cx="568.3149999999999" cy="72.73500000000001" r="4.055" fill="#9c1737"/><circle cx="576.425" cy="72.73500000000001" r="4.055" fill="#6f132c"/><rect x="749.4330294636112" y="62.59092420045329" width="12.186572651725001" height="12.186572651725001" fill="#070B13"/><circle cx="752.4749999999999" cy="65.635" r="3.045" fill="#a31738"/><circle cx="758.5749999999999" cy="65.635" r="3.045" fill="#9c1737"/><circle cx="752.4749999999999" cy="71.72500000000001" r="3.045" fill="#0c0b14"/><circle cx="758.5749999999999" cy="71.72500000000001" r="3.045" fill="#2a0e1b"/><rect x="795.7272828003022" y="63.09570385293377" width="11.177013346764042" height="11.177013346764042" fill="#070B13"/><circle cx="804.115" cy="71.47500000000001" r="2.795" fill="#290e1b"/><rect x="842.0215361369932" y="63.60048350541426" width="10.167454041803069" height="10.167454041803069" fill="#070B13"/><circle cx="844.56" cy="71.22000000000001" r="2.54" fill="#0a0b14"/><rect x="18.315789473684212" y="109.89473684210526" width="9.157894736842103" height="9.157894736842103" fill="#070B13"/><circle cx="25.18" cy="116.76" r="2.29" fill="#260d1a"/><rect x="107.87561823218334" y="107.87561823218334" width="13.196131956685967" height="13.196131956685967" fill="#070B13"/><circle cx="117.77" cy="117.77" r="3.3" fill="#dd1c46"/><rect x="197.43544699068246" y="105.8564996222614" width="17.23436917652984" height="17.23436917652984" fill="#070B13"/><circle cx="201.75" cy="110.17" r="4.31" fill="#2a0e1b"/><rect x="242.215361369932" y="104.84694031730044" width="19.253487786451775" height="19.253487786451775" fill="#070B13"/><rect x="286.9952757491816" y="103.83738101233946" width="21.272606396373707" height="21.272606396373707" fill="#070B13"/><circle cx="292.32" cy="109.16" r="5.32" fill="#481023"/><circle cx="292.32" cy="119.78999999999999" r="5.32" fill="#bf193f"/><circle cx="302.95" cy="119.78999999999999" r="5.32" fill="#380f1f"/><rect x="331.7751901284311" y="102.82782170737849" width="23.291725006295643" height="23.291725006295643" fill="#070B13"/><circle cx="349.245" cy="108.655" r="5.825" fill="#140c16"/><circle cx="337.60499999999996" cy="120.295" r="5.825" fill="#891532"/><rect x="376.63923444976075" y="101.90239234449761" width="25.142583732057414" height="25.142583732057414" fill="#070B13"/><circle cx="382.925" cy="108.185" r="6.285" fill="#71132c"/><circle cx="395.495" cy="108.185" r="6.285" fill="#b2183c"/><circle cx="382.925" cy="120.755" r="6.285" fill="#c41a40"/><circle cx="395.495" cy="120.755" r="6.285" fill="#0d0b14"/><rect x="468.2181818181818" y="101.90239234449761" width="25.142583732057414" height="25.142583732057414" fill="#070B13"/><circle cx="474.50500000000005" cy="108.185" r="6.285" fill="#ab183a"/><circle cx="487.07500000000005" cy="108.185" r="6.285" fill="#7f1430"/><circle cx="474.50500000000005" cy="120.755" r="6.285" fill="#501124"/><rect x="514.0076555023924" y="101.90239234449761" width="25.142583732057414" height="25.142583732057414" fill="#070B13"/><circle cx="520.295" cy="108.185" r="6.285" fill="#7c142f"/><circle cx="532.865" cy="108.185" r="6.285" fill="#991636"/><circle cx="520.295" cy="120.755" r="6.285" fill="#0d0c15"/><rect x="607.5215915386553" y="103.83738101233946" width="21.272606396373707" height="21.272606396373707" fill="#070B13"/><circle cx="612.84" cy="109.16" r="5.32" fill="#7a142e"/><circle cx="612.84" cy="119.78999999999999" r="5.32" fill="#501124"/><circle cx="623.48" cy="119.78999999999999" r="5.32" fill="#2a0e1b"/><rect x="701.1196575169982" y="105.8564996222614" width="17.23436917652984" height="17.23436917652984" fill="#070B13"/><circle cx="705.43" cy="110.17" r="4.31" fill="#5f1228"/><circle cx="714.05" cy="110.17" r="4.31" fill="#0e0c15"/><circle cx="705.43" cy="118.78" r="4.31" fill="#891532"/><rect x="747.9186905061697" y="106.86605892722237" width="15.215250566607903" height="15.215250566607903" fill="#070B13"/><circle cx="751.7249999999999" cy="110.67500000000001" r="3.805" fill="#290e1b"/><circle cx="759.3349999999999" cy="110.67500000000001" r="3.805" fill="#160c17"/><circle cx="759.3349999999999" cy="118.275" r="3.805" fill="#0b0b14"/><rect x="841.5167564845127" y="108.8851775371443" width="11.177013346764042" height="11.177013346764042" fill="#070B13"/><circle cx="844.3149999999999" cy="111.685" r="2.795" fill="#d11b43"/><circle cx="849.905" cy="111.685" r="2.795" fill="#441022"/><circle cx="844.3149999999999" cy="117.265" r="2.795" fill="#370f1f"/><circle cx="849.905" cy="117.265" r="2.795" fill="#9f1737"/><rect x="18.315789473684212" y="155.6842105263158" width="9.157894736842103" height="9.157894736842103" fill="#070B13"/><circle cx="20.61" cy="157.97" r="2.29" fill="#a51739"/><circle cx="25.18" cy="162.54999999999998" r="2.29" fill="#891532"/><rect x="62.59092420045329" y="154.16987156887436" width="12.186572651725001" height="12.186572651725001" fill="#070B13"/><circle cx="65.635" cy="157.21499999999997" r="3.045" fill="#9f1737"/><rect x="106.86605892722237" y="152.6555326114329" width="15.215250566607903" height="15.215250566607903" fill="#070B13"/><circle cx="110.67500000000001" cy="156.465" r="3.805" fill="#801430"/><circle cx="118.275" cy="156.465" r="3.805" fill="#a21738"/><circle cx="118.275" cy="164.065" r="3.805" fill="#360f1e"/><rect x="151.14119365399145" y="151.14119365399145" width="18.243928481490805" height="18.243928481490805" fill="#070B13"/><circle cx="155.7" cy="164.82" r="4.56" fill="#390f1f"/><rect x="195.41632838076052" y="149.62685469655" width="21.272606396373703" height="21.272606396373703" fill="#070B13"/><circle cx="200.73999999999998" cy="154.95" r="5.32" fill="#bf193f"/><circle cx="211.37" cy="165.57999999999998" r="5.32" fill="#451022"/><rect x="239.6914631075296" y="148.11251573910855" width="24.30128431125661" height="24.30128431125661" fill="#070B13"/><circle cx="245.765" cy="154.185" r="6.075" fill="#6e132c"/><circle cx="257.915" cy="154.185" r="6.075" fill="#4e1124"/><circle cx="245.765" cy="166.33499999999998" r="6.075" fill="#d51b44"/><circle cx="257.915" cy="166.33499999999998" r="6.075" fill="#cc1a42"/><rect x="372.64306220095693" y="143.69569377990433" width="33.134928229665064" height="33.134928229665064" fill="#070B13"/><circle cx="380.925" cy="151.98499999999999" r="8.285" fill="#581126"/><circle cx="397.495" cy="151.98499999999999" r="8.285" fill="#0f0c15"/><rect x="418.43253588516745" y="143.69569377990433" width="33.134928229665064" height="33.134928229665064" fill="#070B13"/><circle cx="426.71500000000003" cy="151.98499999999999" r="8.285" fill="#0d0b14"/><circle cx="443.285" cy="151.98499999999999" r="8.285" fill="#941635"/><circle cx="443.285" cy="168.545" r="8.285" fill="#8c1533"/><rect x="464.222009569378" y="143.69569377990433" width="33.134928229665064" height="33.134928229665064" fill="#070B13"/><circle cx="472.50500000000005" cy="151.98499999999999" r="8.285" fill="#330e1d"/><circle cx="489.07500000000005" cy="151.98499999999999" r="8.285" fill="#0f0c15"/><circle cx="489.07500000000005" cy="168.545" r="8.285" fill="#2f0e1c"/><rect x="557.1891009821204" y="145.08383782422564" width="30.358640141022413" height="30.358640141022413" fill="#070B13"/><circle cx="564.7800000000001" cy="152.67000000000002" r="7.59" fill="#c31a40"/><circle cx="579.96" cy="152.67000000000002" r="7.59" fill="#280e1b"/><circle cx="564.7800000000001" cy="167.85" r="7.59" fill="#571126"/><circle cx="579.96" cy="167.85" r="7.59" fill="#240d1a"/><rect x="604.4929136237724" y="146.5981767816671" width="27.329962226139507" height="27.329962226139507" fill="#070B13"/><circle cx="624.99" cy="167.09" r="6.83" fill="#350f1e"/><rect x="651.7967262654244" y="148.11251573910855" width="24.30128431125661" height="24.30128431125661" fill="#070B13"/><circle cx="657.875" cy="154.185" r="6.075" fill="#931634"/><circle cx="657.875" cy="166.33499999999998" r="6.075" fill="#c61a41"/><circle cx="670.0250000000001" cy="166.33499999999998" r="6.075" fill="#581126"/><rect x="699.1005389070764" y="149.62685469655" width="21.272606396373703" height="21.272606396373703" fill="#070B13"/><circle cx="704.4200000000001" cy="154.95" r="5.32" fill="#cd1a42"/><rect x="793.7081641903802" y="152.6555326114329" width="15.215250566607903" height="15.215250566607903" fill="#070B13"/><circle cx="797.515" cy="156.465" r="3.805" fill="#0c0b14"/><circle cx="805.125" cy="156.465" r="3.805" fill="#b2183c"/><circle cx="797.515" cy="164.065" r="3.805" fill="#c21a40"/><rect x="841.0119768320322" y="154.16987156887436" width="12.186572651725001" height="12.186572651725001" fill="#070B13"/><circle cx="844.055" cy="157.21499999999997" r="3.045" fill="#d31b44"/><circle cx="850.155" cy="157.21499999999997" r="3.045" fill="#73132d"/><circle cx="844.055" cy="163.30499999999998" r="3.045" fill="#921634"/><rect x="18.315789473684212" y="201.47368421052633" width="9.157894736842103" height="9.157894736842103" fill="#070B13"/><circle cx="25.18" cy="203.76" r="2.29" fill="#4f1124"/><circle cx="20.61" cy="208.34" r="2.29" fill="#230d1a"/><circle cx="25.18" cy="208.34" r="2.29" fill="#b0183b"/><rect x="62.08614454797281" y="199.45456560060438" width="13.196131956685967" height="13.196131956685967" fill="#070B13"/><circle cx="71.98" cy="209.35000000000002" r="3.3" fill="#871532"/><rect x="105.8564996222614" y="197.43544699068246" width="17.23436917652984" height="17.23436917652984" fill="#070B13"/><circle cx="118.78" cy="201.75" r="4.31" fill="#7e142f"/><circle cx="118.78" cy="210.36" r="4.31" fill="#4c1023"/><rect x="193.3972097708386" y="193.3972097708386" width="25.31084361621757" height="25.31084361621757" fill="#070B13"/><circle cx="199.73000000000002" cy="199.73000000000002" r="6.33" fill="#421021"/><circle cx="212.38000000000002" cy="199.73000000000002" r="6.33" fill="#160c17"/><circle cx="199.73000000000002" cy="212.38000000000002" r="6.33" fill="#2b0e1c"/><circle cx="212.38000000000002" cy="212.38000000000002" r="6.33" fill="#5e1228"/><rect x="237.16756484512717" y="191.37809116091665" width="29.349080836061447" height="29.349080836061447" fill="#070B13"/><circle cx="244.505" cy="198.715" r="7.335" fill="#a31738"/><rect x="280.9379199194158" y="189.3589725509947" width="33.38731805590531" height="33.38731805590531" fill="#070B13"/><circle cx="289.285" cy="197.705" r="8.345" fill="#801430"/><circle cx="305.975" cy="197.705" r="8.345" fill="#3e0f20"/><circle cx="289.285" cy="214.395" r="8.345" fill="#b1183c"/><rect x="324.7082749937044" y="187.3398539410728" width="37.42555527574918" height="37.42555527574918" fill="#070B13"/><circle cx="352.77500000000003" cy="196.695" r="9.355" fill="#c91a41"/><circle cx="334.065" cy="215.405" r="9.355" fill="#881532"/><circle cx="352.77500000000003" cy="215.405" r="9.355" fill="#bc193e"/><rect x="414.43636363636364" y="185.488995215311" width="41.127272727272725" height="41.127272727272725" fill="#070B13"/><circle cx="424.71999999999997" cy="195.77" r="10.28" fill="#75142d"/><circle cx="445.28" cy="195.77" r="10.28" fill="#160c17"/><circle cx="424.71999999999997" cy="216.33" r="10.28" fill="#cf1b43"/><rect x="506.0153110047847" y="185.488995215311" width="41.127272727272725" height="41.127272727272725" fill="#070B13"/><circle cx="516.3" cy="195.77" r="10.28" fill="#a01738"/><circle cx="516.3" cy="216.33" r="10.28" fill="#090b14"/><circle cx="536.86" cy="216.33" r="10.28" fill="#ca1a41"/><rect x="553.655643414757" y="187.3398539410728" width="37.42555527574918" height="37.42555527574918" fill="#070B13"/><circle cx="563.015" cy="196.695" r="9.355" fill="#6e132c"/><circle cx="563.015" cy="215.405" r="9.355" fill="#a61739"/><rect x="649.2728280030219" y="191.37809116091665" width="29.349080836061447" height="29.349080836061447" fill="#070B13"/><circle cx="671.2850000000001" cy="198.715" r="7.335" fill="#240d1a"/><circle cx="656.605" cy="213.38500000000002" r="7.335" fill="#991636"/><circle cx="671.2850000000001" cy="213.38500000000002" r="7.335" fill="#d11b43"/><rect x="697.0814202971544" y="193.3972097708386" width="25.31084361621757" height="25.31084361621757" fill="#070B13"/><circle cx="703.4100000000001" cy="199.73000000000002" r="6.33" fill="#b0183b"/><circle cx="716.07" cy="199.73000000000002" r="6.33" fill="#8e1633"/><circle cx="716.07" cy="212.38000000000002" r="6.33" fill="#a21738"/><rect x="744.8900125912869" y="195.41632838076052" width="21.272606396373707" height="21.272606396373707" fill="#070B13"/><circle cx="750.21" cy="200.73999999999998" r="5.32" fill="#b2183c"/><rect x="792.6986048854193" y="197.43544699068246" width="17.23436917652984" height="17.23436917652984" fill="#070B13"/><circle cx="805.63" cy="201.75" r="4.31" fill="#0e0c15"/><circle cx="797.01" cy="210.36" r="4.31" fill="#9f1737"/><circle cx="805.63" cy="210.36" r="4.31" fill="#b0183b"/><rect x="840.5071971795518" y="199.45456560060438" width="13.196131956685967" height="13.196131956685967" fill="#070B13"/><circle cx="843.81" cy="202.75" r="3.3" fill="#b2183c"/><circle cx="850.41" cy="202.75" r="3.3" fill="#d81b45"/><circle cx="850.41" cy="209.35000000000002" r="3.3" fill="#1f0d19"/><rect x="61.79168975069253" y="244.94958448753462" width="13.785041551246536" height="13.785041551246536" fill="#070B13"/><circle cx="65.235" cy="248.39499999999998" r="3.445" fill="#9c1737"/><circle cx="65.235" cy="255.285" r="3.445" fill="#180c17"/><circle cx="72.125" cy="255.285" r="3.445" fill="#541125"/><rect x="105.26759002770083" y="242.63601108033242" width="18.41218836565097" height="18.41218836565097" fill="#070B13"/><circle cx="119.075" cy="247.24499999999998" r="4.605" fill="#68132a"/><circle cx="109.875" cy="256.445" r="4.605" fill="#941635"/><circle cx="119.075" cy="256.445" r="4.605" fill="#2b0e1c"/><rect x="235.69529085872577" y="235.69529085872577" width="32.29362880886427" height="32.29362880886427" fill="#070B13"/><circle cx="243.77499999999998" cy="243.77499999999998" r="8.075" fill="#0c0b14"/><rect x="279.1711911357341" y="233.38171745152354" width="36.920775623268696" height="36.920775623268696" fill="#070B13"/><circle cx="288.40000000000003" cy="242.60999999999999" r="9.23" fill="#9c1737"/><circle cx="306.86" cy="242.60999999999999" r="9.23" fill="#841531"/><circle cx="288.40000000000003" cy="261.07" r="9.23" fill="#3c0f20"/><circle cx="306.86" cy="261.07" r="9.23" fill="#b5193d"/><rect x="322.6470914127424" y="231.06814404432131" width="41.54792243767314" height="41.54792243767314" fill="#070B13"/><circle cx="353.805" cy="241.45499999999998" r="10.385" fill="#601228"/><circle cx="353.805" cy="262.225" r="10.385" fill="#5d1227"/><rect x="366.3157894736842" y="228.94736842105263" width="45.78947368421053" height="45.78947368421053" fill="#070B13"/><circle cx="400.655" cy="240.39499999999998" r="11.445" fill="#360f1e"/><circle cx="377.765" cy="263.285" r="11.445" fill="#330e1d"/><circle cx="400.655" cy="263.285" r="11.445" fill="#c21a40"/><rect x="457.89473684210526" y="228.94736842105263" width="45.78947368421053" height="45.78947368421053" fill="#070B13"/><circle cx="469.335" cy="240.39499999999998" r="11.445" fill="#d51b44"/><circle cx="492.235" cy="240.39499999999998" r="11.445" fill="#a01738"/><circle cx="469.335" cy="263.285" r="11.445" fill="#cf1b43"/><circle cx="492.235" cy="263.285" r="11.445" fill="#541125"/><rect x="551.5944598337951" y="231.06814404432131" width="41.54792243767314" height="41.54792243767314" fill="#070B13"/><circle cx="561.975" cy="262.225" r="10.385" fill="#6e132c"/><circle cx="582.755" cy="262.225" r="10.385" fill="#230d1a"/><rect x="744.006648199446" y="240.3224376731302" width="23.0393351800554" height="23.0393351800554" fill="#070B13"/><circle cx="749.77" cy="246.07999999999998" r="5.76" fill="#991636"/><circle cx="761.29" cy="257.6" r="5.76" fill="#d91b45"/><rect x="792.1096952908588" y="242.63601108033242" width="18.41218836565097" height="18.41218836565097" fill="#070B13"/><circle cx="796.715" cy="247.24499999999998" r="4.605" fill="#090b14"/><circle cx="805.9250000000001" cy="247.24499999999998" r="4.605" fill="#471022"/><circle cx="796.715" cy="256.445" r="4.605" fill="#b0183b"/><circle cx="805.9250000000001" cy="256.445" r="4.605" fill="#9d1737"/><rect x="840.2127423822715" y="244.94958448753462" width="13.785041551246536" height="13.785041551246536" fill="#070B13"/><circle cx="850.5550000000001" cy="255.285" r="3.445" fill="#b0183b"/><rect x="18.315789473684212" y="293.0526315789474" width="9.157894736842103" height="9.157894736842103" fill="#070B13"/><circle cx="20.61" cy="295.34000000000003" r="2.29" fill="#0e0c15"/><circle cx="25.18" cy="295.34000000000003" r="2.29" fill="#961635"/><circle cx="20.61" cy="299.92" r="2.29" fill="#1f0d19"/><circle cx="25.18" cy="299.92" r="2.29" fill="#73132d"/><rect x="105.26759002770083" y="288.42548476454294" width="18.41218836565097" height="18.41218836565097" fill="#070B13"/><circle cx="119.075" cy="293.035" r="4.605" fill="#080b13"/><circle cx="109.875" cy="302.235" r="4.605" fill="#a21738"/><circle cx="119.075" cy="302.235" r="4.605" fill="#1f0d19"/><rect x="235.69529085872577" y="281.4847645429363" width="32.29362880886427" height="32.29362880886427" fill="#070B13"/><circle cx="259.915" cy="289.555" r="8.075" fill="#3d0f20"/><circle cx="243.77499999999998" cy="305.705" r="8.075" fill="#cb1a42"/><circle cx="259.915" cy="305.705" r="8.075" fill="#66122a"/><rect x="279.1711911357341" y="279.1711911357341" width="36.920775623268696" height="36.920775623268696" fill="#070B13"/><circle cx="288.40000000000003" cy="288.40000000000003" r="9.23" fill="#190c17"/><circle cx="306.86" cy="288.40000000000003" r="9.23" fill="#3f0f20"/><circle cx="288.40000000000003" cy="306.86" r="9.23" fill="#e01c47"/><circle cx="306.86" cy="306.86" r="9.23" fill="#491023"/><rect x="322.6470914127424" y="276.85761772853186" width="41.54792243767314" height="41.54792243767314" fill="#070B13"/><circle cx="333.03499999999997" cy="287.245" r="10.385" fill="#120c16"/><circle cx="353.805" cy="287.245" r="10.385" fill="#dd1c46"/><circle cx="333.03499999999997" cy="308.015" r="10.385" fill="#7e142f"/><rect x="366.3157894736842" y="274.7368421052632" width="45.78947368421053" height="45.78947368421053" fill="#070B13"/><circle cx="400.655" cy="286.185" r="11.445" fill="#260d1a"/><circle cx="377.765" cy="309.075" r="11.445" fill="#7f1430"/><circle cx="400.655" cy="309.075" r="11.445" fill="#2d0e1c"/><rect x="412.10526315789474" y="274.7368421052632" width="45.78947368421053" height="45.78947368421053" fill="#070B13"/><circle cx="423.555" cy="286.185" r="11.445" fill="#100c15"/><circle cx="423.555" cy="309.075" r="11.445" fill="#a01737"/><circle cx="446.445" cy="309.075" r="11.445" fill="#571126"/><rect x="457.89473684210526" y="274.7368421052632" width="45.78947368421053" height="45.78947368421053" fill="#070B13"/><circle cx="469.335" cy="286.185" r="11.445" fill="#9c1737"/><circle cx="469.335" cy="309.075" r="11.445" fill="#1c0d18"/><circle cx="492.235" cy="309.075" r="11.445" fill="#0f0c15"/><rect x="503.6842105263158" y="274.7368421052632" width="45.78947368421053" height="45.78947368421053" fill="#070B13"/><circle cx="515.125" cy="309.075" r="11.445" fill="#7f1430"/><rect x="599.6975069252078" y="279.1711911357341" width="36.920775623268696" height="36.920775623268696" fill="#070B13"/><circle cx="608.9300000000001" cy="288.40000000000003" r="9.23" fill="#090b14"/><circle cx="627.39" cy="288.40000000000003" r="9.23" fill="#b2183c"/><circle cx="608.9300000000001" cy="306.86" r="9.23" fill="#4d1024"/><rect x="695.9036011080333" y="283.79833795013855" width="27.66648199445983" height="27.66648199445983" fill="#070B13"/><circle cx="702.8149999999999" cy="290.71500000000003" r="6.915" fill="#911634"/><circle cx="716.655" cy="290.71500000000003" r="6.915" fill="#ca1a42"/><circle cx="716.655" cy="304.545" r="6.915" fill="#1b0d18"/><rect x="792.1096952908588" y="288.42548476454294" width="18.41218836565097" height="18.41218836565097" fill="#070B13"/><circle cx="796.715" cy="293.035" r="4.605" fill="#571126"/><circle cx="796.715" cy="302.235" r="4.605" fill="#400f21"/><circle cx="805.9250000000001" cy="302.235" r="4.605" fill="#bf193f"/><rect x="840.2127423822715" y="290.73905817174517" width="13.785041551246536" height="13.785041551246536" fill="#070B13"/><circle cx="843.6550000000001" cy="294.185" r="3.445" fill="#9a1636"/><circle cx="850.5550000000001" cy="294.185" r="3.445" fill="#9e1737"/><circle cx="843.6550000000001" cy="301.075" r="3.445" fill="#461022"/><circle cx="850.5550000000001" cy="301.075" r="3.445" fill="#1d0d18"/><rect x="18.315789473684212" y="338.8421052631579" width="9.157894736842103" height="9.157894736842103" fill="#070B13"/><circle cx="20.61" cy="341.13" r="2.29" fill="#8b1532"/><circle cx="25.18" cy="341.13" r="2.29" fill="#a31738"/><circle cx="25.18" cy="345.71000000000004" r="2.29" fill="#4d1024"/><rect x="149.62685469655" y="332.7847494333921" width="21.272606396373707" height="21.272606396373707" fill="#070B13"/><circle cx="165.57999999999998" cy="338.09999999999997" r="5.32" fill="#5f1228"/><rect x="193.3972097708386" y="330.7656308234702" width="25.31084361621757" height="25.31084361621757" fill="#070B13"/><circle cx="212.38000000000002" cy="337.09999999999997" r="6.33" fill="#d01b43"/><circle cx="199.73000000000002" cy="349.75" r="6.33" fill="#c0193f"/><circle cx="212.38000000000002" cy="349.75" r="6.33" fill="#bf193f"/><rect x="237.16756484512717" y="328.7465122135482" width="29.349080836061447" height="29.349080836061447" fill="#070B13"/><circle cx="244.505" cy="336.085" r="7.335" fill="#851531"/><circle cx="244.505" cy="350.755" r="7.335" fill="#541125"/><rect x="324.7082749937044" y="324.7082749937044" width="37.42555527574918" height="37.42555527574918" fill="#070B13"/><circle cx="334.065" cy="334.065" r="9.355" fill="#1c0d18"/><circle cx="352.77500000000003" cy="334.065" r="9.355" fill="#8a1532"/><circle cx="352.77500000000003" cy="352.77500000000003" r="9.355" fill="#0e0c15"/><rect x="368.6468899521531" y="322.8574162679426" width="41.127272727272725" height="41.127272727272725" fill="#070B13"/><circle cx="378.92999999999995" cy="333.14" r="10.28" fill="#390f1f"/><circle cx="399.48999999999995" cy="333.14" r="10.28" fill="#b7193d"/><circle cx="399.48999999999995" cy="353.7" r="10.28" fill="#0c0b14"/><rect x="414.43636363636364" y="322.8574162679426" width="41.127272727272725" height="41.127272727272725" fill="#070B13"/><circle cx="424.71999999999997" cy="333.14" r="10.28" fill="#561126"/><circle cx="445.28" cy="333.14" r="10.28" fill="#160c17"/><circle cx="445.28" cy="353.7" r="10.28" fill="#851531"/><rect x="460.22583732057416" y="322.8574162679426" width="41.127272727272725" height="41.127272727272725" fill="#070B13"/><circle cx="470.51" cy="333.14" r="10.28" fill="#4d1024"/><circle cx="491.07" cy="333.14" r="10.28" fill="#c41a40"/><circle cx="491.07" cy="353.7" r="10.28" fill="#3e0f20"/><rect x="506.0153110047847" y="322.8574162679426" width="41.127272727272725" height="41.127272727272725" fill="#070B13"/><circle cx="536.86" cy="333.14" r="10.28" fill="#2e0e1c"/><circle cx="516.3" cy="353.7" r="10.28" fill="#451022"/><circle cx="536.86" cy="353.7" r="10.28" fill="#d81b45"/><rect x="553.655643414757" y="324.7082749937044" width="37.42555527574918" height="37.42555527574918" fill="#070B13"/><circle cx="563.015" cy="334.065" r="9.355" fill="#380f1f"/><rect x="601.4642357088895" y="326.7273936036263" width="33.38731805590531" height="33.38731805590531" fill="#070B13"/><circle cx="609.8050000000001" cy="335.07500000000005" r="8.345" fill="#c11a3f"/><circle cx="626.505" cy="335.07500000000005" r="8.345" fill="#74142d"/><circle cx="609.8050000000001" cy="351.76500000000004" r="8.345" fill="#921634"/><circle cx="626.505" cy="351.76500000000004" r="8.345" fill="#651229"/><rect x="649.2728280030219" y="328.7465122135482" width="29.349080836061447" height="29.349080836061447" fill="#070B13"/><circle cx="656.605" cy="336.085" r="7.335" fill="#521125"/><circle cx="671.2850000000001" cy="336.085" r="7.335" fill="#af183b"/><circle cx="671.2850000000001" cy="350.755" r="7.335" fill="#451022"/><rect x="792.6986048854193" y="334.803868043314" width="17.23436917652984" height="17.23436917652984" fill="#070B13"/><circle cx="797.01" cy="339.11" r="4.31" fill="#cb1a42"/><rect x="840.5071971795518" y="336.822986653236" width="13.196131956685967" height="13.196131956685967" fill="#070B13"/><circle cx="843.81" cy="340.12" r="3.3" fill="#d31b44"/><rect x="18.315789473684212" y="384.63157894736844" width="9.157894736842103" height="9.157894736842103" fill="#070B13"/><circle cx="25.18" cy="386.92" r="2.29" fill="#471022"/><circle cx="20.61" cy="391.5" r="2.29" fill="#130c16"/><circle cx="25.18" cy="391.5" r="2.29" fill="#150c16"/><rect x="62.59092420045329" y="383.117239989927" width="12.186572651725001" height="12.186572651725001" fill="#070B13"/><circle cx="65.635" cy="386.165" r="3.045" fill="#c11a3f"/><circle cx="65.635" cy="392.255" r="3.045" fill="#8e1533"/><rect x="151.14119365399145" y="380.0885620750441" width="18.243928481490805" height="18.243928481490805" fill="#070B13"/><circle cx="155.7" cy="384.65" r="4.56" fill="#370f1e"/><circle cx="164.82" cy="384.65" r="4.56" fill="#a01737"/><circle cx="164.82" cy="393.77" r="4.56" fill="#c51a40"/><rect x="195.41632838076052" y="378.5742231176026" width="21.272606396373703" height="21.272606396373703" fill="#070B13"/><circle cx="211.37" cy="383.89" r="5.32" fill="#b8193d"/><circle cx="211.37" cy="394.53" r="5.32" fill="#801430"/><rect x="239.6914631075296" y="377.0598841601612" width="24.30128431125661" height="24.30128431125661" fill="#070B13"/><circle cx="245.765" cy="383.135" r="6.075" fill="#e11c47"/><circle cx="257.915" cy="395.28499999999997" r="6.075" fill="#5e1228"/><rect x="283.9665978342987" y="375.5455452027197" width="27.329962226139507" height="27.329962226139507" fill="#070B13"/><circle cx="290.8" cy="382.38" r="6.83" fill="#d91b45"/><circle cx="304.46" cy="382.38" r="6.83" fill="#d31b44"/><circle cx="290.8" cy="396.03999999999996" r="6.83" fill="#511125"/><circle cx="304.46" cy="396.03999999999996" r="6.83" fill="#d81b45"/><rect x="372.64306220095693" y="372.64306220095693" width="33.134928229665064" height="33.134928229665064" fill="#070B13"/><circle cx="380.925" cy="380.925" r="8.285" fill="#5b1227"/><circle cx="397.495" cy="380.925" r="8.285" fill="#471022"/><circle cx="380.925" cy="397.495" r="8.285" fill="#bb193e"/><circle cx="397.495" cy="397.495" r="8.285" fill="#3a0f1f"/><rect x="464.222009569378" y="372.64306220095693" width="33.134928229665064" height="33.134928229665064" fill="#070B13"/><circle cx="472.50500000000005" cy="380.925" r="8.285" fill="#4b1023"/><circle cx="489.07500000000005" cy="380.925" r="8.285" fill="#5b1227"/><circle cx="472.50500000000005" cy="397.495" r="8.285" fill="#250d1a"/><rect x="510.0114832535885" y="372.64306220095693" width="33.134928229665064" height="33.134928229665064" fill="#070B13"/><circle cx="534.865" cy="380.925" r="8.285" fill="#a51739"/><circle cx="534.865" cy="397.495" r="8.285" fill="#521125"/><rect x="557.1891009821204" y="374.03120624527827" width="30.358640141022413" height="30.358640141022413" fill="#070B13"/><circle cx="564.7800000000001" cy="381.61999999999995" r="7.59" fill="#2d0e1c"/><circle cx="564.7800000000001" cy="396.79999999999995" r="7.59" fill="#aa183a"/><circle cx="579.96" cy="396.79999999999995" r="7.59" fill="#921634"/><rect x="699.1005389070764" y="378.5742231176026" width="21.272606396373703" height="21.272606396373703" fill="#070B13"/><circle cx="704.4200000000001" cy="383.89" r="5.32" fill="#d31b44"/><circle cx="715.0600000000001" cy="383.89" r="5.32" fill="#110c15"/><circle cx="704.4200000000001" cy="394.53" r="5.32" fill="#d91b45"/><circle cx="715.0600000000001" cy="394.53" r="5.32" fill="#821530"/><rect x="63.09570385293377" y="429.411493326618" width="11.177013346764042" height="11.177013346764042" fill="#070B13"/><circle cx="65.895" cy="437.795" r="2.795" fill="#390f1f"/><circle cx="71.47500000000001" cy="437.795" r="2.795" fill="#d91b45"/><rect x="107.87561823218334" y="428.40193402165704" width="13.196131956685967" height="13.196131956685967" fill="#070B13"/><circle cx="111.17999999999999" cy="431.7" r="3.3" fill="#971635"/><circle cx="117.77" cy="431.7" r="3.3" fill="#841531"/><rect x="197.43544699068246" y="426.38281541173507" width="17.23436917652984" height="17.23436917652984" fill="#070B13"/><circle cx="201.75" cy="430.69" r="4.31" fill="#7d142f"/><circle cx="210.36" cy="430.69" r="4.31" fill="#4b1023"/><rect x="242.215361369932" y="425.37325610677414" width="19.253487786451775" height="19.253487786451775" fill="#070B13"/><circle cx="247.035" cy="430.185" r="4.815" fill="#ba193e"/><rect x="331.7751901284311" y="423.35413749685216" width="23.291725006295643" height="23.291725006295643" fill="#070B13"/><circle cx="337.60499999999996" cy="429.175" r="5.825" fill="#0e0c15"/><circle cx="337.60499999999996" cy="440.825" r="5.825" fill="#7c142f"/><circle cx="349.245" cy="440.825" r="5.825" fill="#8d1533"/><rect x="376.63923444976075" y="422.42870813397127" width="25.142583732057414" height="25.142583732057414" fill="#070B13"/><circle cx="395.495" cy="428.71500000000003" r="6.285" fill="#6b132b"/><circle cx="395.495" cy="441.285" r="6.285" fill="#591127"/><rect x="422.42870813397127" y="422.42870813397127" width="25.142583732057414" height="25.142583732057414" fill="#070B13"/><circle cx="441.285" cy="428.71500000000003" r="6.285" fill="#db1c46"/><circle cx="441.285" cy="441.285" r="6.285" fill="#b2183c"/><rect x="468.2181818181818" y="422.42870813397127" width="25.142583732057414" height="25.142583732057414" fill="#070B13"/><circle cx="474.50500000000005" cy="428.71500000000003" r="6.285" fill="#b7193d"/><circle cx="487.07500000000005" cy="428.71500000000003" r="6.285" fill="#d61b44"/><circle cx="474.50500000000005" cy="441.285" r="6.285" fill="#d71b45"/><circle cx="487.07500000000005" cy="441.285" r="6.285" fill="#400f21"/><rect x="560.7225585494838" y="423.35413749685216" width="23.291725006295643" height="23.291725006295643" fill="#070B13"/><circle cx="566.5450000000001" cy="429.175" r="5.825" fill="#a31738"/><circle cx="578.195" cy="429.175" r="5.825" fill="#110c15"/><circle cx="578.195" cy="440.825" r="5.825" fill="#150c16"/><rect x="607.5215915386553" y="424.36369680181315" width="21.272606396373707" height="21.272606396373707" fill="#070B13"/><circle cx="623.48" cy="429.68" r="5.32" fill="#4b1023"/><circle cx="612.84" cy="440.32" r="5.32" fill="#861531"/><circle cx="623.48" cy="440.32" r="5.32" fill="#5c1227"/><rect x="654.3206245278268" y="425.37325610677414" width="19.253487786451775" height="19.253487786451775" fill="#070B13"/><circle cx="659.1350000000001" cy="430.185" r="4.815" fill="#801430"/><circle cx="668.7650000000001" cy="430.185" r="4.815" fill="#d31b44"/><rect x="794.7177234953413" y="428.40193402165704" width="13.196131956685967" height="13.196131956685967" fill="#070B13"/><circle cx="804.62" cy="431.7" r="3.3" fill="#ab183a"/><circle cx="798.02" cy="438.3" r="3.3" fill="#160c17"/><rect x="841.5167564845127" y="429.411493326618" width="11.177013346764042" height="11.177013346764042" fill="#070B13"/><circle cx="844.3149999999999" cy="432.20500000000004" r="2.795" fill="#1b0d18"/><circle cx="849.905" cy="432.20500000000004" r="2.795" fill="#ad183b"/><circle cx="844.3149999999999" cy="437.795" r="2.795" fill="#ab183a"/><rect x="18.315789473684212" y="476.2105263157895" width="9.157894736842103" height="9.157894736842103" fill="#070B13"/><circle cx="20.61" cy="478.5" r="2.29" fill="#79142e"/><circle cx="25.18" cy="483.08000000000004" r="2.29" fill="#2a0e1b"/><rect x="63.60048350541426" y="475.705746663309" width="10.167454041803069" height="10.167454041803069" fill="#070B13"/><circle cx="71.22000000000001" cy="478.25" r="2.54" fill="#0a0b14"/><circle cx="66.14" cy="483.33000000000004" r="2.54" fill="#0e0c15"/><circle cx="71.22000000000001" cy="483.33000000000004" r="2.54" fill="#451022"/><rect x="108.8851775371443" y="475.2009670108285" width="11.177013346764042" height="11.177013346764042" fill="#070B13"/><circle cx="111.685" cy="477.995" r="2.795" fill="#c61a41"/><circle cx="117.265" cy="477.995" r="2.795" fill="#ab183a"/><circle cx="111.685" cy="483.58500000000004" r="2.795" fill="#411021"/><circle cx="117.265" cy="483.58500000000004" r="2.795" fill="#75142d"/><rect x="199.45456560060438" y="474.19140770586756" width="13.196131956685967" height="13.196131956685967" fill="#070B13"/><circle cx="209.35000000000002" cy="477.49" r="3.3" fill="#b5193c"/><rect x="244.73925963233444" y="473.68662805338704" width="14.20569126164694" height="14.20569126164694" fill="#070B13"/><circle cx="248.29000000000002" cy="484.34000000000003" r="3.55" fill="#0b0b14"/><rect x="290.0239536640645" y="473.1818484009066" width="15.215250566607903" height="15.215250566607903" fill="#070B13"/><circle cx="301.435" cy="476.985" r="3.805" fill="#5e1228"/><circle cx="293.825" cy="484.595" r="3.805" fill="#8f1634"/><rect x="335.30864769579455" y="472.6770687484261" width="16.224809871568873" height="16.224809871568873" fill="#070B13"/><circle cx="339.365" cy="476.735" r="4.055" fill="#74132d"/><circle cx="347.475" cy="476.735" r="4.055" fill="#240d1a"/><circle cx="339.365" cy="484.845" r="4.055" fill="#5d1228"/><circle cx="347.475" cy="484.845" r="4.055" fill="#961635"/><rect x="518.0038277511961" y="472.21435406698566" width="17.15023923444976" height="17.15023923444976" fill="#070B13"/><circle cx="522.29" cy="476.5" r="4.29" fill="#71132c"/><circle cx="530.87" cy="476.5" r="4.29" fill="#3e0f20"/><circle cx="522.29" cy="485.08000000000004" r="4.29" fill="#b6193d"/><circle cx="530.87" cy="485.08000000000004" r="4.29" fill="#e11c47"/><rect x="610.5502694535381" y="473.1818484009066" width="15.215250566607903" height="15.215250566607903" fill="#070B13"/><rect x="656.8445227902292" y="473.68662805338704" width="14.20569126164694" height="14.20569126164694" fill="#070B13"/><circle cx="660.39" cy="477.24" r="3.55" fill="#6a132b"/><circle cx="667.5" cy="477.24" r="3.55" fill="#2a0e1b"/><circle cx="667.5" cy="484.34000000000003" r="3.55" fill="#3a0f1f"/><rect x="703.1387761269202" y="474.19140770586756" width="13.196131956685967" height="13.196131956685967" fill="#070B13"/><circle cx="713.04" cy="477.49" r="3.3" fill="#270e1b"/><circle cx="706.4399999999999" cy="484.09000000000003" r="3.3" fill="#521125"/><circle cx="713.04" cy="484.09000000000003" r="3.3" fill="#c41a40"/><rect x="795.7272828003022" y="475.2009670108285" width="11.177013346764042" height="11.177013346764042" fill="#070B13"/><circle cx="804.115" cy="477.995" r="2.795" fill="#3c0f20"/><circle cx="798.525" cy="483.58500000000004" r="2.795" fill="#811530"/><circle cx="804.115" cy="483.58500000000004" r="2.795" fill="#73132d"/><rect x="842.0215361369932" y="475.705746663309" width="10.167454041803069" height="10.167454041803069" fill="#070B13"/><circle cx="844.56" cy="478.25" r="2.54" fill="#4d1024"/><circle cx="849.65" cy="478.25" r="2.54" fill="#dd1c46"/><circle cx="849.65" cy="483.33000000000004" r="2.54" fill="#a11738"/></g></svg>