<svg id="visual" viewBox="0 0 1980 1080" width="1980" height="1080" xmlns="http://www.w3.org/2000/svg" xmlns:xlink="http://www.w3.org/1999/xlink" version="1.1"><rect x="0" y="0" width="1980" height="1080" fill="#070B13"></rect><path d="M1353 1080L1381.5 1054.3C1410 1028.7 1467 977.3 1489.3 925.8C1511.7 874.3 1499.3 822.7 1494.8 771.2C1490.3 719.7 1493.7 668.3 1496.7 617C1499.7 565.7 1502.3 514.3 1490.2 463C1478 411.7 1451 360.3 1422.2 308.8C1393.3 257.3 1362.7 205.7 1343.8 154.2C1325 102.7 1318 51.3 1314.5 25.7L1311 0L1980 0L1980 25.7C1980 51.3 1980 102.7 1980 154.2C1980 205.7 1980 257.3 1980 308.8C1980 360.3 1980 411.7 1980 463C1980 514.3 1980 565.7 1980 617C1980 668.3 1980 719.7 1980 771.2C1980 822.7 1980 874.3 1980 925.8C1980 977.3 1980 1028.7 1980 1054.3L1980 1080Z" fill="#070b13"></path><path d="M1526 1080L1527 1054.3C1528 1028.7 1530 977.3 1516.2 925.8C1502.3 874.3 1472.7 822.7 1472.3 771.2C1472 719.7 1501 668.3 1535.2 617C1569.3 565.7 1608.7 514.3 1627 463C1645.3 411.7 1642.7 360.3 1616.3 308.8C1590 257.3 1540 205.7 1507.5 154.2C1475 102.7 1460 51.3 1452.5 25.7L1445 0L1980 0L1980 25.7C1980 51.3 1980 102.7 1980 154.2C1980 205.7 1980 257.3 1980 308.8C1980 360.3 1980 411.7 1980 463C1980 514.3 1980 565.7 1980 617C1980 668.3 1980 719.7 1980 771.2C1980 822.7 1980 874.3 1980 925.8C1980 977.3 1980 1028.7 1980 1054.3L1980 1080Z" fill="#26203f"></path><path d="M1527 1080L1559.3 1054.3C1591.7 1028.7 1656.3 977.3 1673.3 925.8C1690.3 874.3 1659.7 822.7 1637 771.2C1614.3 719.7 1599.7 668.3 1616.7 617C1633.7 565.7 1682.3 514.3 1674.8 463C1667.3 411.7 1603.7 360.3 1582.8 308.8C1562 257.3 1584 205.7 1603.2 154.2C1622.3 102.7 1638.7 51.3 1646.8 25.7L1655 0L1980 0L1980 25.7C1980 51.3 1980 102.7 1980 154.2C1980 205.7 1980 257.3 1980 308.8C1980 360.3 1980 411.7 1980 463C1980 514.3 1980 565.7 1980 617C1980 668.3 1980 719.7 1980 771.2C1980 822.7 1980 874.3 1980 925.8C1980 977.3 1980 1028.7 1980 1054.3L1980 1080Z" fill="#60265e"></path><path d="M1695 1080L1692.3 1054.3C1689.7 1028.7 1684.3 977.3 1693.7 925.8C1703 874.3 1727 822.7 1748.7 771.2C1770.3 719.7 1789.7 668.3 1777.3 617C1765 565.7 1721 514.3 1705.5 463C1690 411.7 1703 360.3 1722.5 308.8C1742 257.3 1768 205.7 1757.3 154.2C1746.7 102.7 1699.3 51.3 1675.7 25.7L1652 0L1980 0L1980 25.7C1980 51.3 1980 102.7 1980 154.2C1980 205.7 1980 257.3 1980 308.8C1980 360.3 1980 411.7 1980 463C1980 514.3 1980 565.7 1980 617C1980 668.3 1980 719.7 1980 771.2C1980 822.7 1980 874.3 1980 925.8C1980 977.3 1980 1028.7 1980 1054.3L1980 1080Z" fill="#a61a61"></path><path d="M1817 1080L1827.3 1054.3C1837.7 1028.7 1858.3 977.3 1866.7 925.8C1875 874.3 1871 822.7 1878 771.2C1885 719.7 1903 668.3 1909.3 617C1915.7 565.7 1910.3 514.3 1899.3 463C1888.3 411.7 1871.7 360.3 1849.5 308.8C1827.3 257.3 1799.7 205.7 1811.3 154.2C1823 102.7 1874 51.3 1899.5 25.7L1925 0L1980 0L1980 25.7C1980 51.3 1980 102.7 1980 154.2C1980 205.7 1980 257.3 1980 308.8C1980 360.3 1980 411.7 1980 463C1980 514.3 1980 565.7 1980 617C1980 668.3 1980 719.7 1980 771.2C1980 822.7 1980 874.3 1980 925.8C1980 977.3 1980 1028.7 1980 1054.3L1980 1080Z" fill="#e11c47"></path></svg>