<svg id="Layer_1" data-name="Layer 1" xmlns="http://www.w3.org/2000/svg" viewBox="0 0 50 53.5"><defs><style>.cls-1{fill:#01ecf3;}.cls-2{fill:none;stroke:#01ecf3;stroke-linecap:round;stroke-linejoin:round;}</style></defs><title>cikaculjak3</title><circle class="cls-1" cx="25" cy="15.5" r="13"/><path class="cls-1" d="M89,89A25,25,0,0,0,69.73,64.66C68,67,60,67,58.35,64.64A25,25,0,0,0,39,89" transform="translate(-39 -35.5)"/><path class="cls-2" d="M78.75,50.75a14.75,14.75,0,0,0-29.5,0" transform="translate(-39 -35.5)"/><path class="cls-1" d="M50,48.54a4.38,4.38,0,0,0-.52,0,3,3,0,0,0,0,6" transform="translate(-39 -35.5)"/><path class="cls-1" d="M78.4,53.94A2.91,2.91,0,0,0,79,54a3,3,0,0,0,0-6,3.06,3.06,0,0,0-1.09.2" transform="translate(-39 -35.5)"/></svg>