<svg id="Layer_1" data-name="Layer 1" xmlns="http://www.w3.org/2000/svg" viewBox="0 0 108.83 108.48"><defs><style>.cls-1,.cls-2,.cls-3,.cls-5,.cls-6{fill:none;}.cls-1{stroke:#000;}.cls-1,.cls-2,.cls-3,.cls-4,.cls-6{stroke-linecap:round;stroke-linejoin:round;}.cls-1,.cls-3,.cls-5{stroke-width:2px;}.cls-2,.cls-3,.cls-4,.cls-5,.cls-6{stroke:#e11c47;}.cls-2,.cls-4{stroke-width:3px;}.cls-4{fill:#e11c47;}.cls-5{stroke-miterlimit:10;}.cls-6{stroke-width:5px;}</style></defs><title>support</title><path class="cls-1" d="M31.79,43" transform="translate(-7.59 -8.02)"/><path class="cls-2" d="M31.79,43C31.5.51,91.48-3.7,92.05,43" transform="translate(-7.59 -8.02)"/><path class="cls-3" d="M35,47.51" transform="translate(-7.59 -8.02)"/><path class="cls-4" d="M32.71,48a5.47,5.47,0,1,1-2.12-10.5,5.17,5.17,0,0,1,1.58.24A20.12,20.12,0,0,0,32.71,48Z" transform="translate(-7.59 -8.02)"/><path class="cls-4" d="M90.87,48.12a5.37,5.37,0,0,0,2.16.36,5.46,5.46,0,1,0-.38-10.92,5.74,5.74,0,0,0-1.57.28A20.18,20.18,0,0,1,90.87,48.12Z" transform="translate(-7.59 -8.02)"/><path class="cls-5" d="M51.35,63.91" transform="translate(-7.59 -8.02)"/><path class="cls-5" d="M37.93,50" transform="translate(-7.59 -8.02)"/><path class="cls-2" d="M52.47,63.91A21.18,21.18,0,0,0,62,66.19c12.83,0,23.22-11.63,23.22-26s-10.39-26-23.22-26-23.22,11.62-23.22,26a29,29,0,0,0,.75,6.58" transform="translate(-7.59 -8.02)"/><path class="cls-3" d="M29.29,38.61c1.1,11.6,13.49,20.74,28.61,20.74" transform="translate(-7.59 -8.02)"/><path class="cls-6" d="M47.41,69.41C25.84,75.05,10.09,92.88,10.09,114" transform="translate(-7.59 -8.02)"/><path class="cls-6" d="M113.91,114c0-20.8-15.28-38.41-36.35-44.33" transform="translate(-7.59 -8.02)"/></svg>